<?xml version="1.0" encoding="UTF-8"?><svg data-noselect="" viewBox="0 0 800 600" width="800" height="600" preserveAspectRatio="none" version="1.1" xmlns="http://www.w3.org/2000/svg" xmlns:xlink="http://www.w3.org/1999/xlink" class="svg-canvas"><defs></defs> <g id="background" data-noselect=""><!----> <!----></g> <g id="shape_wJEtNEUlAp" transform="translate(4.41232919217985,428.19356719650824) rotate(0,207.4035891324526,81.76131587492944) scale(1,1)" filter="" style="opacity: 1;"><g><rect fill="rgba(0,0,0,0)" width="434.8071782649052" height="183.52263174985887" x="-10" y="-10"></rect><svg version="1.1" id="图层_1" xmlns="http://www.w3.org/2000/svg" xmlns:xlink="http://www.w3.org/1999/xlink" x="0px" y="0px" viewBox="0 0 183 72.5" style="enable-background:new 0 0 183 72.5;" xml:space="preserve" width="414.8071782649052" height="163.52263174985887" class="style-removed" preserveAspectRatio="none" data-parent="shape_wJEtNEUlAp">
<path d="M101.373,44.96c-18.426,8.114-37.656,11.907-57.425,5.324C22.294,43.074,9.31,27.961,3.037,7.755
	C3.17,8.511,3.3,9.267,3.447,10.026c8.057,41.739,42.799,65.709,84.587,58.029c26.035-4.785,47.731-18.138,66.763-35.826
	c9.542-8.868,17.882-18.664,25.166-29.207h-25.755C139.307,21.349,122.551,35.633,101.373,44.96z" fill="#ffffff" stroke-width="0"></path>
</svg></g></g><g id="shape_EGmFyXWUlu" transform="translate(180.02482495183264,6.6577895032567165) rotate(0,160.173068834967,89.74534296374176) scale(1,1)" filter="" style="opacity: 1;"><g><rect fill="rgba(0,0,0,0)" width="340.346137669934" height="199.49068592748353" x="-10" y="-10"></rect><svg version="1.1" id="图层_1" xmlns="http://www.w3.org/2000/svg" xmlns:xlink="http://www.w3.org/1999/xlink" x="0px" y="0px" viewBox="0 0 129 72.279" style="enable-background:new 0 0 129 72.279;" xml:space="preserve" width="320.346137669934" height="179.49068592748353" class="style-removed" preserveAspectRatio="none" data-parent="shape_EGmFyXWUlu">
<path d="M124.724,60.561c-5.383-25.338-18.756-44.867-43.783-54.449C62.158-1.079,43.21,0.709,24.687,7.358
	C16.842,10.174,9.494,13.592,2.54,17.515c9.988-4.545,20.529-7.624,31.783-8.26c35.206-1.991,61.614,18.903,68.885,53.98
	c0.525,2.533,0.956,5.052,1.304,7.56h21.948C126.023,67.4,125.452,63.989,124.724,60.561z" fill="#ffffff" stroke-width="0"></path>
</svg></g></g><g id="shape_iwxgOxmOyt" transform="translate(83.76720559106526,32.378755922941004) rotate(0,64.02436122478068,64.0243612247807) scale(1,1)" filter="" style="opacity: 1;"><g><rect fill="rgba(0,0,0,0)" width="148.04872244956135" height="148.0487224495614" x="-10" y="-10"></rect><svg version="1.1" id="图层_1" xmlns="http://www.w3.org/2000/svg" xmlns:xlink="http://www.w3.org/1999/xlink" x="0px" y="0px" viewBox="0 0 283.465 283.465" style="enable-background:new 0 0 283.465 283.465;" xml:space="preserve" width="128.04872244956135" height="128.0487224495614" preserveAspectRatio="none" class="style-removed" data-parent="shape_iwxgOxmOyt">
<path d="M279.941,140.938c-107.771,17.375-121.279,31.034-137.413,138.997
	c-17.367-107.771-31.036-121.277-139.005-137.41c107.77-17.374,121.279-31.034,137.411-138.996
	C158.31,111.294,171.973,124.805,279.941,140.938z" fill="#ffffff" stroke-width="0"></path>
</svg></g></g><g id="shape_2x4hYb6SlO" transform="translate(-217.0339682468727,-615.2432103384327) rotate(0,638.2608515479487,934.89159) scale(1,1)" filter="" style="opacity: 1;"><g><svg xmlns="http://www.w3.org/2000/svg" version="1.1" xmlns:xlink="http://www.w3.org/1999/xlink" width="1810.5417030958974" height="1869.78318" viewBox="0 0 1810.5417030958974 1869.78318" data-parent="shape_2x4hYb6SlO"><rect fill="rgba(0,0,0,0)" width="742.5017030958975" height="267" x="267.01" y="801.39159"></rect><g data-width="742.4519412951511" transform="translate(267.0348809003732, 0)"><path d="M106.80 0L17.36 0L17.36-31.77L98.79-31.77Q118.29-31.77 124.69-35.51L124.69-35.51Q134.04-41.12 134.04-52.33L134.04-52.33Q134.04-65.42 123.09-71.29L123.09-71.29Q116.95-74.76 103.33-74.76L103.33-74.76L70.22-74.76Q40.05-74.76 26.70-85.71L26.70-85.71Q18.42-92.65 13.75-103.07Q9.08-113.48 9.08-125.49L9.08-125.49Q9.08-144.19 20.03-159.67L20.03-159.67Q30.71-174.62 54.20-177.29L54.20-177.29Q62.21-178.10 77.97-178.10L77.97-178.10L166.35-178.10L166.35-146.32L86.51-146.32Q68.62-146.05 62.75-144.72L62.75-144.72Q50.73-141.78 50.73-126.56L50.73-126.56Q50.73-113.75 60.88-109.47L60.88-109.47Q67.55-106.27 83.31-106.27L83.31-106.27L111.88-106.27Q133.77-106.27 144.45-102.53L144.45-102.53Q163.41-96.12 170.62-80.10L170.62-80.10Q176.23-67.29 176.23-52.60L176.23-52.60Q176.23-36.31 168.75-23.50L168.75-23.50Q158.34-5.34 137.51-1.60L137.51-1.60Q127.36 0 106.80 0L106.80 0Z" transform="translate(0 1030.39159) " fill="#ffffff" stroke="#ffffff" stroke-width="0.445" data-glyph-w="201.63358532378777" data-glyph-h="267.01" data-glyph-ascender="229.36158999999998" data-glyph-descender="-37.64841"></path><path d="M9.88-30.71L122.02-146.32L9.88-146.32L9.88-178.10L164.48-178.10L164.48-145.25L56.07-31.77L164.48-31.77L164.48 0L9.88 0L9.88-30.71Z" transform="translate(201.63358532378777 1030.39159) " fill="#ffffff" stroke="#ffffff" stroke-width="0.445" data-glyph-w="190.68617532378775" data-glyph-h="267.01" data-glyph-ascender="229.36158999999998" data-glyph-descender="-37.64841"></path><path d="M18.16-178.10L56.07-178.10L56.07 0L18.16 0L18.16-178.10ZM122.02 0L57.41-89.98L125.49-178.10L175.43-178.10L100.93-89.98L171.95 0L122.02 0Z" transform="translate(392.31976064757555 1030.39159) " fill="#ffffff" stroke="#ffffff" stroke-width="0.445" data-glyph-w="192.02122532378777" data-glyph-h="267.01" data-glyph-ascender="229.36158999999998" data-glyph-descender="-37.64841"></path><path d="M44.06 0L3.74 0L3.74-31.77L40.05-31.77Q57.14-31.77 65.28-32.98Q73.43-34.18 77.70-37.92L77.70-37.92Q83.57-42.45 85.84-51.00Q88.11-59.54 88.11-77.97L88.11-77.97L88.11-178.10L125.76-178.10L125.76-77.97Q125.76-59.28 124.43-49.66Q123.09-40.05 119.09-31.51L119.09-31.51Q108.94-8.81 82.24-2.40L82.24-2.40Q69.42 0 44.06 0L44.06 0Z" transform="translate(584.3409859713634 1030.39159) " fill="#ffffff" stroke="#ffffff" stroke-width="0.445" data-glyph-w="158.11095532378778" data-glyph-h="267.01" data-glyph-ascender="229.36158999999998" data-glyph-descender="-37.64841"></path></g></svg></g></g><defs><pattern id="wm_tile" x="0" y="0" width="20%" height="27%" patternunits="objectBoundingBox"></pattern></defs><rect x="0" y="0" width="100%" height="100%" style="fill: url(#wm_tile);"></rect></svg>